<mxfile host="app.diagrams.net" modified="2020-09-26T14:26:57.185Z" agent="5.0 (Windows NT 10.0; Win64; x64) AppleWebKit/537.36 (KHTML, like Gecko) Chrome/85.0.4183.121 Safari/537.36" etag="OLSJsSZS9DqlR-BC1fI8" version="13.7.5" type="github">
  <diagram id="C5RBs43oDa-KdzZeNtuy" name="Page-1">
    <mxGraphModel dx="3262" dy="1564" grid="0" gridSize="10" guides="1" tooltips="1" connect="1" arrows="1" fold="1" page="0" pageScale="1" pageWidth="827" pageHeight="1169" math="0" shadow="0">
      <root>
        <mxCell id="WIyWlLk6GJQsqaUBKTNV-0" />
        <mxCell id="WIyWlLk6GJQsqaUBKTNV-1" parent="WIyWlLk6GJQsqaUBKTNV-0" />
        <mxCell id="fgOs2e3cDVV9cMMuYBFO-4" value="Container" style="swimlane;" vertex="1" parent="WIyWlLk6GJQsqaUBKTNV-1">
          <mxGeometry x="-928" y="-292" width="461" height="440" as="geometry" />
        </mxCell>
        <mxCell id="fgOs2e3cDVV9cMMuYBFO-9" value="Container" style="swimlane;" vertex="1" parent="fgOs2e3cDVV9cMMuYBFO-4">
          <mxGeometry y="23" width="204" height="417" as="geometry" />
        </mxCell>
        <mxCell id="fgOs2e3cDVV9cMMuYBFO-11" value="Container" style="swimlane;" vertex="1" parent="fgOs2e3cDVV9cMMuYBFO-4">
          <mxGeometry x="204" y="23" width="257" height="417" as="geometry" />
        </mxCell>
      </root>
    </mxGraphModel>
  </diagram>
</mxfile>
